<mxfile host="Electron" agent="Mozilla/5.0 (X11; Linux x86_64) AppleWebKit/537.36 (KHTML, like Gecko) draw.io/26.0.4 Chrome/128.0.6613.186 Electron/32.2.5 Safari/537.36" version="26.0.4">
  <diagram name="Page-1" id="VEuHIHHrRALLOhttwdCl">
    <mxGraphModel dx="1114" dy="1198" grid="1" gridSize="10" guides="1" tooltips="1" connect="1" arrows="1" fold="1" page="1" pageScale="1" pageWidth="850" pageHeight="1100" math="0" shadow="0">
      <root>
        <mxCell id="0" />
        <mxCell id="1" parent="0" />
        <mxCell id="I-p8Fc1MvNLi3N7hqLim-1" value="File in S3 bucket" style="rounded=0;whiteSpace=wrap;html=1;fillColor=#d5e8d4;strokeColor=#82b366;" vertex="1" parent="1">
          <mxGeometry x="310" y="430" width="270" height="30" as="geometry" />
        </mxCell>
        <mxCell id="I-p8Fc1MvNLi3N7hqLim-2" value="Part 1" style="rounded=0;whiteSpace=wrap;html=1;fillColor=#d5e8d4;strokeColor=#82b366;" vertex="1" parent="1">
          <mxGeometry x="310" y="490" width="70" height="30" as="geometry" />
        </mxCell>
        <mxCell id="I-p8Fc1MvNLi3N7hqLim-9" value="Part 1" style="rounded=0;whiteSpace=wrap;html=1;fillColor=#d5e8d4;strokeColor=#82b366;" vertex="1" parent="1">
          <mxGeometry x="390" y="490" width="70" height="30" as="geometry" />
        </mxCell>
        <mxCell id="I-p8Fc1MvNLi3N7hqLim-10" value="Part 1" style="rounded=0;whiteSpace=wrap;html=1;fillColor=#d5e8d4;strokeColor=#82b366;" vertex="1" parent="1">
          <mxGeometry x="510" y="490" width="70" height="30" as="geometry" />
        </mxCell>
        <mxCell id="I-p8Fc1MvNLi3N7hqLim-11" value="..." style="text;html=1;align=center;verticalAlign=middle;resizable=0;points=[];autosize=1;strokeColor=none;fillColor=none;" vertex="1" parent="1">
          <mxGeometry x="470" y="490" width="30" height="30" as="geometry" />
        </mxCell>
        <mxCell id="I-p8Fc1MvNLi3N7hqLim-13" value="" style="shape=curlyBracket;whiteSpace=wrap;html=1;rounded=1;flipH=1;labelPosition=right;verticalLabelPosition=middle;align=left;verticalAlign=middle;rotation=90;" vertex="1" parent="1">
          <mxGeometry x="335" y="440" width="20" height="70" as="geometry" />
        </mxCell>
        <mxCell id="I-p8Fc1MvNLi3N7hqLim-14" value="" style="shape=curlyBracket;whiteSpace=wrap;html=1;rounded=1;flipH=1;labelPosition=right;verticalLabelPosition=middle;align=left;verticalAlign=middle;rotation=90;" vertex="1" parent="1">
          <mxGeometry x="410" y="440" width="20" height="70" as="geometry" />
        </mxCell>
        <mxCell id="I-p8Fc1MvNLi3N7hqLim-15" value="" style="shape=curlyBracket;whiteSpace=wrap;html=1;rounded=1;flipH=1;labelPosition=right;verticalLabelPosition=middle;align=left;verticalAlign=middle;rotation=90;" vertex="1" parent="1">
          <mxGeometry x="535" y="440" width="20" height="70" as="geometry" />
        </mxCell>
        <mxCell id="I-p8Fc1MvNLi3N7hqLim-16" value="Requests in parallel" style="text;html=1;align=center;verticalAlign=middle;resizable=0;points=[];autosize=1;strokeColor=none;fillColor=none;fontStyle=1" vertex="1" parent="1">
          <mxGeometry x="380" y="530" width="130" height="30" as="geometry" />
        </mxCell>
      </root>
    </mxGraphModel>
  </diagram>
</mxfile>
